HIERARCHY
ROOT Hips
{
	OFFSET 0.000000 0.000000 0.000000
	CHANNELS 6 Xposition Yposition Zposition Zrotation Yrotation Xrotation 
	JOINT LowerBack
	{
		OFFSET 0.000000 0.000000 0.000000
		CHANNELS 3 Zrotation Yrotation Xrotation
		JOINT Spine
		{
			OFFSET 0.028270 2.035590 -0.193380
			CHANNELS 3 Zrotation Yrotation Xrotation
			JOINT Spine1
			{
				OFFSET 0.056720 2.048850 -0.042750
				CHANNELS 3 Zrotation Yrotation Xrotation
				JOINT Neck
				{
					OFFSET 0.000000 0.000000 0.000000
					CHANNELS 3 Zrotation Yrotation Xrotation
					JOINT Neck1
					{
						OFFSET -0.054170 1.746240 0.172020
						CHANNELS 3 Zrotation Yrotation Xrotation
						JOINT Head
						{
							OFFSET 0.104070 1.761360 -0.123970
							CHANNELS 3 Zrotation Yrotation Xrotation
							End Site
							{
								OFFSET 0.000000 0.000000 0.000000
							}
						}
					}
				}
				JOINT LeftShoulder
				{
					OFFSET 0.000000 0.000000 0.000000
					CHANNELS 3 Zrotation Yrotation Xrotation
					JOINT LeftArm
					{
						OFFSET 3.362410 1.200890 -0.311210
						CHANNELS 3 Zrotation Yrotation Xrotation
						JOINT LeftForeArm
						{
							OFFSET 4.983000 -0.000000 -0.000000
							CHANNELS 3 Zrotation Yrotation Xrotation
							JOINT LeftHand
							{
								OFFSET 3.483560 -0.000000 -0.000000
								CHANNELS 3 Zrotation Yrotation Xrotation
								JOINT LeftFingerBase
								{
									OFFSET 0.000000 0.000000 0.000000
									CHANNELS 3 Zrotation Yrotation Xrotation
									JOINT LeftHandIndex1
									{
										OFFSET 0.715260 -0.000000 -0.000000
										CHANNELS 3 Zrotation Yrotation Xrotation
										End Site
										{
											OFFSET 0.000000 0.000000 0.000000
										}
									}
								}
								JOINT LThumb
								{
									OFFSET 0.000000 0.000000 0.000000
									CHANNELS 3 Zrotation Yrotation Xrotation
									End Site
									{
										OFFSET 0.000000 0.000000 0.000000
									}
								}
							}
						}
					}
				}
				JOINT RightShoulder
				{
					OFFSET 0.000000 0.000000 0.000000
					CHANNELS 3 Zrotation Yrotation Xrotation
					JOINT RightArm
					{
						OFFSET -3.136600 1.374050 -0.404650
						CHANNELS 3 Zrotation Yrotation Xrotation
						JOINT RightForeArm
						{
							OFFSET -5.241900 -0.000000 -0.000000
							CHANNELS 3 Zrotation Yrotation Xrotation
							JOINT RightHand
							{
								OFFSET -3.444170 -0.000000 -0.000000
								CHANNELS 3 Zrotation Yrotation Xrotation
								JOINT RightFingerBase
								{
									OFFSET 0.000000 0.000000 0.000000
									CHANNELS 3 Zrotation Yrotation Xrotation
									JOINT RightHandIndex1
									{
										OFFSET -0.622530 -0.000000 -0.000000
										CHANNELS 3 Zrotation Yrotation Xrotation
										End Site
										{
											OFFSET 0.000000 0.000000 0.000000
										}
									}
								}
								JOINT RThumb
								{
									OFFSET 0.000000 0.000000 0.000000
									CHANNELS 3 Zrotation Yrotation Xrotation
									End Site
									{
										OFFSET 0.000000 0.000000 0.000000
									}
								}
							}
						}
					}
				}
			}
		}
	}
}
}
MOTION
Frames: 17
Frame Time: 0.008333
2.388215 18.109782 0.424719 9.293607 83.314410 27.972769 -1.848894 -0.204187 -3.325718 -1.300972 -0.216422 -3.998497 -7.834971 -0.134343 -2.112183 10.049218 -9.952722 -7.330526 -2.639423 -0.213322 0.131408 0.000000 0.000000 0.000000 5.555880 12.724277 -0.836104 -69.633680 30.779249 25.603143 179.908082 -65.785254 179.961860 2.525673 -9.491980 -0.212151 0.100995 0.559951 -0.000000 0.000000 0.000000 0.000000 0.000000 0.000000 0.000000 5.249410 -1.955504 -1.674802 88.848726 12.054298 38.165353 178.990750 72.444554 -179.986853 0.847604 13.465153 0.113326 -0.025017 -0.899704 -0.000000 0.000000 0.000000 0.000000 0.000000 0.000000 0.000000 
2.629562 18.075664 0.433364 10.461154 83.551044 28.885446 -1.960741 -0.329073 -3.157702 -1.308551 -0.325676 -3.975031 -7.829050 -0.245967 -2.155205 10.072583 -9.917870 -7.259610 -2.650949 -0.214971 0.150728 0.000000 0.000000 0.000000 5.514466 12.450704 -0.829379 -69.815662 30.737123 25.500642 179.897350 -66.001618 179.960917 2.722024 -9.529906 -0.230685 0.095439 0.560817 -0.000000 0.000000 0.000000 0.000000 0.000000 0.000000 0.000000 5.332709 -2.001723 -1.658961 88.550126 11.812276 37.992716 179.018320 72.491983 -179.988518 0.733206 13.458035 0.098689 -0.024233 -0.896914 -0.000000 0.000000 0.000000 0.000000 0.000000 0.000000 0.000000 
2.867862 18.030562 0.441749 11.688991 83.812301 29.860217 -2.058213 -0.452450 -2.974535 -1.313524 -0.433747 -3.945876 -7.821085 -0.355383 -2.191673 10.095165 -9.887210 -7.197073 -2.667956 -0.216845 0.166756 0.000000 0.000000 0.000000 5.483928 12.170312 -0.812658 -70.005420 30.509352 25.474125 179.888313 -66.317366 179.960132 2.905541 -9.550481 -0.247916 0.089832 0.561837 -0.000000 0.000000 0.000000 0.000000 0.000000 0.000000 0.000000 5.444604 -2.055385 -1.640918 88.202088 11.544507 37.765093 179.051188 72.556188 -179.990717 0.565379 13.451253 0.077156 -0.022344 -0.893884 -0.000000 0.000000 0.000000 0.000000 0.000000 0.000000 0.000000 
3.103289 17.974292 0.449819 12.908539 84.078663 30.834309 -2.137362 -0.568680 -2.785091 -1.315825 -0.535694 -3.912953 -7.811655 -0.457698 -2.221269 10.113224 -9.865313 -7.145566 -2.689464 -0.218850 0.178920 0.000000 0.000000 0.000000 5.458462 11.891408 -0.788138 -70.184976 30.102712 25.535398 179.881556 -66.720963 179.959523 3.069973 -9.556417 -0.263046 0.084318 0.563104 -0.000000 0.000000 0.000000 0.000000 0.000000 0.000000 0.000000 5.577513 -2.117361 -1.620588 87.818217 11.254259 37.487729 179.086859 72.638460 -179.993137 0.378884 13.431643 0.053321 -0.020250 -0.890182 0.000001 0.000000 0.000000 0.000000 0.000000 0.000000 0.000000 
3.336101 17.906624 0.457462 14.019925 84.329907 31.714843 -2.194726 -0.672138 -2.599913 -1.315393 -0.626621 -3.878682 -7.801366 -0.548178 -2.243865 10.123673 -9.852021 -7.106913 -2.714766 -0.220924 0.186901 0.000000 0.000000 0.000000 5.430869 11.624829 -0.757436 -70.337441 29.523451 25.693739 179.878098 -67.203286 179.959113 3.209961 -9.553560 -0.275875 0.078941 0.564769 -0.000000 0.000000 0.000000 0.000000 0.000000 0.000000 0.000000 5.725273 -2.183560 -1.598222 87.409073 10.940792 37.162512 179.123507 72.740352 -179.995490 0.207075 13.389540 0.031378 -0.018864 -0.885476 -0.000000 0.000000 0.000000 0.000000 0.000000 0.000000 0.000000 
3.566640 17.827434 0.464685 15.007438 84.549189 32.497425 -2.237129 -0.760475 -2.433478 -1.313866 -0.704253 -3.845449 -7.790699 -0.624713 -2.256776 10.126415 -9.847991 -7.084420 -2.743682 -0.223028 0.189931 0.000000 0.000000 0.000000 5.395298 11.386663 -0.721789 -70.445734 28.770270 25.959941 179.879161 -67.761007 179.958916 3.330720 -9.543809 -0.286801 0.073312 0.566834 -0.000000 0.000000 0.000000 0.000000 0.000000 0.000000 0.000000 5.889830 -2.252778 -1.574110 86.980469 10.604697 36.793516 179.159817 72.869142 -179.997539 0.075026 13.322221 0.014724 -0.018777 -0.879590 -0.000000 0.000000 0.000000 0.000000 0.000000 0.000000 0.000000 
3.795293 17.736699 0.471546 15.861084 84.720986 33.184299 -2.271978 -0.832128 -2.301190 -1.312768 -0.767079 -3.816210 -7.779768 -0.686108 -2.258878 10.121540 -9.852923 -7.079846 -2.775885 -0.225139 0.187736 0.000000 0.000000 0.000000 5.342850 11.185605 -0.682578 -70.496034 27.850080 26.334015 179.885781 -68.388408 179.958933 3.443102 -9.528909 -0.296813 0.066885 0.569256 -0.000000 0.000000 0.000000 0.000000 0.000000 0.000000 0.000000 6.073047 -2.323570 -1.547855 86.536394 10.244230 36.385978 179.195435 73.037410 -179.999142 -0.003159 13.235668 0.005060 -0.020268 -0.872540 0.000000 0.000000 0.000000 0.000000 0.000000 0.000000 0.000000 
4.022181 17.634479 0.478248 16.609319 84.835748 33.805703 -2.308262 -0.888227 -2.205278 -1.313753 -0.815663 -3.793364 -7.769426 -0.733397 -2.257044 10.106850 -9.856089 -7.087818 -2.811553 -0.227358 0.181946 0.000000 0.000000 0.000000 5.258705 11.009149 -0.639320 -70.476143 26.791093 26.800834 179.899417 -69.066604 179.959183 3.532540 -9.531598 -0.305418 0.059999 0.572595 -0.000000 0.000000 0.000000 0.000000 0.000000 0.000000 0.000000 6.273221 -2.383770 -1.518296 86.084769 9.844060 35.932417 179.231952 73.259872 179.999692 -0.026280 13.130410 0.002486 -0.023438 -0.864197 0.000000 0.000000 0.000000 0.000000 0.000000 0.000000 0.000000 
4.247682 17.521283 0.484938 17.263674 84.885734 34.387560 -2.355329 -0.929331 -2.161910 -1.318146 -0.850364 -3.777594 -7.758017 -0.767047 -2.241207 10.087410 -9.868848 -7.116171 -2.849524 -0.229505 0.170514 0.000000 0.000000 0.000000 5.142206 10.882472 -0.593782 -70.382653 25.572223 27.363520 179.919890 -69.810665 179.959588 3.648724 -9.525874 -0.316298 0.050842 0.575959 -0.000000 0.000000 0.000000 0.000000 0.000000 0.000000 0.000000 6.499269 -2.448372 -1.486477 85.621251 9.417897 35.453702 179.269609 73.559131 179.998900 -0.010827 13.033097 0.004709 -0.027485 -0.855010 -0.000000 0.000000 0.000000 0.000000 0.000000 0.000000 0.000000 
4.471814 17.397932 0.491972 17.863799 84.867563 34.964633 -2.420336 -0.958394 -2.164914 -1.327146 -0.873318 -3.771256 -7.747153 -0.789835 -2.225537 10.061382 -9.871105 -7.152502 -2.890700 -0.231829 0.156976 0.000000 0.000000 0.000000 4.974249 10.771676 -0.544414 -70.207421 24.242585 27.988947 179.948120 -70.589154 179.960172 3.762781 -9.550842 -0.328159 0.040352 0.580342 -0.000000 0.000000 0.000000 0.000000 0.000000 0.000000 0.000000 6.750038 -2.495646 -1.450130 85.153580 8.935344 34.931491 179.311716 73.954398 179.998282 0.025127 12.940864 0.009536 -0.032108 -0.844746 0.000000 0.000000 0.000000 0.000000 0.000000 0.000000 0.000000 
4.694612 17.265727 0.499489 18.338446 84.785363 35.466518 -2.501281 -0.976788 -2.213863 -1.339511 -0.885821 -3.772149 -7.734271 -0.803043 -2.201272 10.032551 -9.875981 -7.202765 -2.932941 -0.234074 0.139685 0.000000 0.000000 0.000000 4.757601 10.693628 -0.492272 -69.959788 22.780962 28.671702 179.982809 -71.414548 179.960838 3.918784 -9.577021 -0.344091 0.027099 0.584833 -0.000000 0.000000 0.000000 0.000000 0.000000 0.000000 0.000000 7.026734 -2.544106 -1.410900 84.680189 8.412076 34.386908 179.359177 74.469159 179.997597 0.044707 12.881290 0.012275 -0.036012 -0.833822 -0.000000 0.000000 0.000000 0.000000 0.000000 0.000000 0.000000 
4.915906 17.126634 0.507844 18.702324 84.647510 35.899889 -2.598793 -0.988638 -2.298379 -1.354819 -0.891429 -3.779312 -7.719520 -0.810436 -2.173213 10.002769 -9.878251 -7.261010 -2.975970 -0.236290 0.120248 0.000000 0.000000 0.000000 4.486956 10.631332 -0.436655 -69.644079 21.206098 29.387528 -179.976712 -72.268362 179.961554 4.112001 -9.615026 -0.363995 0.011360 0.589721 -0.000000 0.000000 0.000000 0.000000 0.000000 0.000000 0.000000 7.328889 -2.591112 -1.368331 84.205813 7.838173 33.816792 179.413689 75.119706 179.996589 0.016162 12.858151 0.009029 -0.038379 -0.822159 0.000000 0.000000 0.000000 0.000000 0.000000 0.000000 0.000000 
5.135480 16.983193 0.517408 19.000008 84.468212 36.299786 -2.713389 -0.999187 -2.406532 -1.372637 -0.894799 -3.790072 -7.702981 -0.816590 -2.140581 9.976609 -9.881400 -7.325517 -3.018891 -0.238409 0.099022 0.000000 0.000000 0.000000 4.165214 10.578850 -0.377242 -69.268261 19.519790 30.121000 -179.931590 -73.143065 179.962283 4.348094 -9.658159 -0.388373 -0.006904 0.594810 -0.000000 0.000000 0.000000 0.000000 0.000000 0.000000 0.000000 7.657379 -2.645080 -1.322949 83.735316 7.215057 33.226017 179.475654 75.916929 179.995042 -0.092037 12.876946 -0.003995 -0.038368 -0.809756 -0.000000 0.000000 0.000000 0.000000 0.000000 0.000000 0.000000 
5.353023 16.838524 0.528619 19.319785 84.265059 36.740494 -2.846400 -1.014901 -2.521781 -1.392920 -0.901689 -3.802263 -7.686147 -0.827226 -2.108666 9.957883 -9.883453 -7.389063 -3.061941 -0.240525 0.077878 0.000000 0.000000 0.000000 3.794484 10.511045 -0.313795 -68.841073 17.746883 30.844849 -179.883324 -74.011681 179.962995 4.616698 -9.709831 -0.416334 -0.027055 0.600291 -0.000000 0.000000 0.000000 0.000000 0.000000 0.000000 0.000000 8.012647 -2.708060 -1.273605 83.274820 6.536104 32.610599 179.544482 76.860764 179.992815 -0.301368 12.932903 -0.029597 -0.035573 -0.796483 -0.000000 0.000000 0.000000 0.000000 0.000000 0.000000 0.000000 
5.568364 16.696030 0.541877 19.768058 84.056232 37.317857 -3.001757 -1.042567 -2.632635 -1.415933 -0.918162 -3.811559 -7.669241 -0.847876 -2.069739 9.953350 -9.897141 -7.455196 -3.103700 -0.242455 0.055654 0.000000 0.000000 0.000000 3.391827 10.437989 -0.246418 -68.375959 15.870645 31.557960 -179.832619 -74.868916 179.963693 4.913713 -9.759784 -0.447377 -0.048893 0.606027 -0.000000 0.000000 0.000000 0.000000 0.000000 0.000000 0.000000 8.394765 -2.799120 -1.222525 82.829878 5.815345 31.981285 179.618129 77.942260 179.989871 -0.627112 13.019744 -0.069880 -0.029685 -0.782225 0.000000 0.000000 0.000000 0.000000 0.000000 0.000000 0.000000 
5.781271 16.559371 0.557399 20.416179 83.858294 38.088466 -3.178840 -1.087577 -2.724242 -1.441533 -0.949290 -3.815958 -7.654732 -0.883390 -2.028425 9.966206 -9.922955 -7.517121 -3.144402 -0.244292 0.034166 0.000000 0.000000 0.000000 2.967530 10.335175 -0.175790 -67.886090 13.923285 32.235806 -179.780751 -75.681195 179.964377 5.217850 -9.811414 -0.479516 -0.071409 0.612319 -0.000000 0.000000 0.000000 0.000000 0.000000 0.000000 0.000000 8.799399 -2.921424 -1.168920 82.407696 5.048962 31.334528 179.693871 79.131730 179.986282 -1.065697 13.123310 -0.124850 -0.021121 -0.766951 0.000000 0.000000 0.000000 0.000000 0.000000 0.000000 0.000000 
5.991821 16.432012 0.575193 21.296667 83.684697 39.074835 -3.373849 -1.153355 -2.788009 -1.468812 -0.998662 -3.812841 -7.643477 -0.936887 -1.981621 9.998909 -9.970096 -7.575017 -3.183126 -0.245957 0.013356 0.000000 0.000000 0.000000 2.540460 10.201345 -0.103311 -67.390212 11.915957 32.869998 -179.728168 -76.427321 179.965077 5.510057 -9.862906 -0.510857 -0.093855 0.619372 -0.000000 0.000000 0.000000 0.000000 0.000000 0.000000 0.000000 9.218856 -3.086567 -1.114109 82.011821 4.243697 30.677453 179.768308 80.389340 179.982224 -1.601367 13.229169 -0.192713 -0.010509 -0.750706 -0.000000 0.000000 0.000000 0.000000 0.000000 0.000000 0.000000 
